<svg width="65" height="65" viewBox="0 0 65 65" fill="none" xmlns="http://www.w3.org/2000/svg">
<path d="M27.7111 1.23779C27.3689 1.06208 26.9491 1.19699 26.7734 1.53913C26.5977 1.88127 26.7326 2.30108 27.0747 2.4768C29.0482 3.49035 30.961 5.23441 32.2501 7.04077C32.7367 7.72271 34.2912 10.9771 35.006 10.8184C35.5453 10.6987 36.0993 10.6628 36.6351 10.5241C41.5947 9.2396 46.832 10.353 51.4773 12.6731C54.5255 14.1957 55.466 14.4566 57.7691 16.7573C59.8176 18.8037 59.6309 21.5467 58.2868 24.1775C56.9379 26.8176 54.5271 29.0947 52.6104 29.9456C51.6472 30.3733 50.6918 30.8183 49.735 31.2598C50.6699 32.3494 51.7443 33.3415 52.626 34.4739C53.7972 35.9782 54.0343 37.8963 54.4408 39.703C57.3074 40.3891 60.1332 41.4294 61.8397 44.0366C62.3475 44.8124 62.6823 45.8448 62.9104 46.9741C63.4985 49.8855 63.4476 52.6498 62.6082 55.5149C61.903 57.9223 60.339 60.579 60.339 63.143C60.339 63.5277 60.6508 63.8395 61.0354 63.8395C61.42 63.8395 61.7318 63.5277 61.7318 63.143C61.7318 60.7393 63.2832 58.1653 63.9449 55.9065C64.847 52.8271 64.9078 49.8277 64.2757 46.6983C64.0332 45.4981 63.6543 44.2656 63.0051 43.2738C61.3205 40.7 58.5281 39.2566 55.6124 38.5515C55.2644 36.9139 54.978 35.2274 53.725 33.6182C53.2071 32.953 52.5966 32.3566 52.0213 31.7409C52.4111 31.5627 52.8534 31.3617 53.1756 31.2187C55.4269 30.2192 58.056 27.6907 59.5271 24.8112C61.0031 21.9225 61.4165 18.4321 58.7535 15.7719C56.2626 13.2836 55.1073 12.9293 52.0997 11.4271C47.2607 9.01014 41.6708 7.78106 36.2859 9.17569C36.0092 9.24734 35.4433 9.32967 35.4433 9.32967C35.0044 8.46391 34.3726 7.75302 33.8531 6.94012C33.7001 6.70176 33.5484 6.46232 33.3838 6.23168C31.9822 4.26765 29.9063 2.36521 27.7111 1.23779Z" fill="#FFAAA8"/>
<path d="M29.4003 12.7301C29.7758 12.6472 30.013 12.2755 29.9301 11.8999C29.8471 11.5243 29.4754 11.2871 29.0998 11.3701C25.772 12.1052 21.6383 13.7946 18.2733 15.3887C12.283 18.2264 7.38165 23.1935 3.35216 28.389C2.27602 29.7765 1.29193 31.2904 0.735027 32.8938C0.608838 33.2572 0.801084 33.654 1.16442 33.7802C1.52776 33.9064 1.9246 33.7142 2.05079 33.3508C2.53528 31.9558 3.41443 30.5814 4.45279 29.2426C8.34768 24.2206 13.0784 19.3909 18.8696 16.6474C22.2075 15.0662 26.2281 13.4309 29.4003 12.7301Z" fill="#FFAAA8"/>
<path d="M29.5555 35.5059C31.609 34.8214 34.1176 35.1649 35.2775 35.4612C35.2599 35.667 35.2117 35.9393 35.1132 36.2183C34.983 36.5871 34.7723 36.9475 34.45 37.1893C33.5366 37.8743 31.7199 39.0072 29.459 39.2333C28.5691 39.3223 27.3997 39.1553 26.2836 38.9013C25.4108 38.7027 24.5851 38.4543 23.9754 38.2459C25.2282 37.4772 27.5922 36.1603 29.5555 35.5059Z" fill="white"/>
<path fill-rule="evenodd" clip-rule="evenodd" d="M34.4797 12.0268C32.9486 9.64823 28.8298 4.29264 28.2786 4.66093C27.7274 5.02922 29.427 10.7991 30.3457 13.638C26.2881 14.7889 17.53 17.6432 14.9577 19.8529C14.5516 20.2017 14.0247 20.624 13.4149 21.1126C9.19545 24.4938 1.00571 31.0564 1.40705 38.4977C1.86639 47.0144 8.9862 54.1501 14.9577 54.8406C20.9291 55.5312 29.6566 53.4595 35.1688 47.9351C39.5784 43.5157 41.4464 38.421 41.8292 36.426C42.5948 37.6537 44.3556 40.2931 45.2743 41.0297C46.193 41.7663 47.0351 42.4108 47.3413 42.641C47.1882 44.1755 47.1576 47.705 48.26 49.5464C49.6381 51.8482 52.6238 54.1501 55.1502 55.7613C57.1713 57.0504 58.7484 59.9813 59.2843 61.2857C60.892 58.2933 63.7399 51.4339 62.27 47.9351C60.8001 44.4364 55.533 41.2599 53.0831 40.109C52.8535 38.958 52.2104 36.2879 51.4754 34.8148C50.7405 33.3416 49.6381 31.7457 49.1787 31.1319C50.9395 30.518 54.7827 28.6459 56.0689 26.0678C57.6766 22.8453 58.8249 19.8529 56.9875 17.7813C55.1502 15.7097 50.3271 13.6381 43.6666 12.0268C38.3382 10.7377 35.9343 11.4897 34.4797 12.0268ZM35.5816 35.0625C34.478 34.7471 31.701 34.3013 29.4087 35.0654C27.1525 35.8175 24.4094 37.4085 23.3209 38.1083L22.9317 38.3585L23.3649 38.5209C23.9928 38.7564 25.0475 39.0962 26.1806 39.354C27.3086 39.6107 28.538 39.792 29.5052 39.6953C31.8871 39.4571 33.7848 38.2686 34.7285 37.5607C35.149 37.2453 35.4026 36.7932 35.551 36.3728C35.6995 35.952 35.75 35.5427 35.75 35.2857V35.1106L35.5816 35.0625Z" fill="white"/>
<path fill-rule="evenodd" clip-rule="evenodd" d="M29.2092 7.22016C28.5639 7.67531 28.7033 8.49391 29.8525 10.997C30.6385 12.7088 30.8681 13.3891 30.8047 13.8188C30.7029 14.5111 31.5591 17.1778 33.2765 21.5167C34.6803 25.0636 36.028 27.841 38.3165 31.9034L39.9125 34.7369L39.5205 35.1028C39.3049 35.304 38.7605 36.1483 38.3108 36.979C37.861 37.8097 36.5246 39.9664 35.3407 41.7715C32.361 46.3151 28.7828 49.7834 23.5361 51.3559C19.0795 52.6921 13.9826 51.8035 9.93471 49.6439C7.58342 48.3895 7.03125 47.9573 4.9685 45.7566C3.46797 44.1558 2.32143 42.0756 2.32143 42.0756C2.32143 42.0756 2.14381 43.875 3.87509 47.5967C7.35717 55.0821 18.7495 56.0164 25.4672 53.8001C34.2421 50.9054 38.4568 46.5682 42.0522 37.9975L41.8757 36.2312C41.8757 36.2312 46.0448 41.2372 46.7358 41.9549C48.6094 43.9003 48.4933 43.6646 48.4933 45.5231C48.4933 47.5127 48.877 48.8095 50.0759 50.8722C51.1873 52.7841 53.4773 55.0261 56.1209 56.7898L57.3955 57.6402L57.3609 58.4368C57.3332 59.0815 57.405 59.2975 57.7382 59.5692C58.4794 60.1736 59.0884 59.9396 59.7445 58.7983C59.9845 58.3806 60.2331 57.7589 60.2967 57.4168C60.3837 56.9496 60.5515 56.7285 60.9715 56.5282C62.1986 55.9431 62.7798 54.1467 62.6642 51.296C62.5869 49.3871 62.1829 48.2074 61.476 47.8263C61.0145 47.5777 60.5815 47.7762 60.5815 48.2367C60.5815 48.5219 60.4399 48.4004 60.0079 47.7432C59.322 46.6998 58.6077 46.1266 58.1931 46.2869C57.8699 46.4118 57.8635 46.3207 58.3694 48.8449C58.8171 51.0776 58.7068 51.2998 57.7993 49.9937C56.5149 48.1454 55.2777 46.7534 54.9191 46.7534C54.4326 46.7534 54.4917 47.1034 55.3045 49.0345C55.7021 49.9793 56.1419 51.0321 56.2816 51.3742L56.5357 51.9963L55.8161 51.1965C54.4142 49.6388 53.2082 48.0768 52.841 47.3431C52.3839 46.4301 51.4051 43.7545 51.4051 43.4184C51.4051 43.2834 51.8332 42.7787 52.3566 42.297C53.3769 41.3578 53.7904 40.5548 53.975 39.1538C54.1613 37.739 53.4745 36.9125 52.463 37.3345C51.9449 37.5506 51.6811 38.0434 51.5044 39.1248C51.4472 39.4744 51.1714 40.0762 51.1714 40.0762C50.7464 40.4701 49.7608 39.2489 49.4658 38.9635L50.4264 37.9568C51.617 36.7087 52.0799 35.6285 51.7584 34.847C51.3636 33.8868 50.2854 33.884 49.7309 34.8415C49.5355 35.179 48.9523 35.8858 48.4349 36.4123L47.4943 37.3691C47.2824 37.1687 46.6404 36.429 46.6404 36.429C46.6404 36.429 49.2874 34.684 49.2874 33.1772C49.2874 32.529 49.0203 32.1801 48.5238 32.1801C48.3317 32.1801 47.7011 32.701 47.0729 33.3787C46.4618 34.038 45.9253 34.5378 45.8807 34.4895C45.8359 34.4411 45.0391 33.242 44.1098 31.8247C43.1807 30.4073 41.7912 28.328 41.0221 27.2039C40.2532 26.0798 39.4466 24.8002 39.2299 24.3603C39.013 23.9205 38.1203 22.3384 37.2459 20.8446C36.343 19.3021 34.9793 16.5759 34.0899 14.5354C31.8069 9.29828 31.0828 7.84255 30.5239 7.3675C29.9386 6.86987 29.7378 6.8473 29.2092 7.22016ZM33.6824 10.9548C33.2929 11.3472 33.3284 11.5443 33.9787 12.5986C35.6949 15.3803 46.4337 30.6409 47.1017 31.2471C47.7186 31.8069 48.3115 31.76 48.7859 31.1138C49.0012 30.8206 49.2827 30.5806 49.4115 30.5806C49.9695 30.5806 52.7434 29.2934 53.7486 28.5679C55.2999 27.4484 57.3302 25.2765 57.7521 24.2851C58.286 23.0309 58.6405 21.4869 58.6385 20.4248C58.1931 16.9464 54.9191 16.9464 54.9191 16.9464C54.9191 16.9464 56.277 18.3991 56.1209 19.9192C55.7276 23.744 53.2666 26.4779 49.718 27.9102L48.0592 28.5798L45.6292 25.1325C44.2928 23.2366 43.1759 21.6173 43.1477 21.534C43.1193 21.4508 43.4369 21.2057 43.8536 20.9894C45.4222 20.1751 46.0746 19.1104 45.7441 17.9047C45.5367 17.1483 44.9763 16.6231 44.0103 16.28C43.075 15.9476 41.1421 15.9378 40.2435 16.2608L39.5821 16.4984L38.277 14.6979C36.307 11.9801 34.9563 10.6756 34.1121 10.6756C34.0283 10.6756 33.835 10.8013 33.6824 10.9548ZM25.9052 19.9192C24.6267 20.1513 23.5444 20.5693 22.8583 21.0964C20.3551 23.0194 21.7358 25.7771 25.1993 25.7727C28.728 25.7682 30.6939 25.0259 31.0858 23.5503C31.4418 22.2099 30.8335 20.7797 29.642 20.1556C29.0204 19.83 27.0748 19.7068 25.9052 19.9192ZM16.6406 26.0183C15.265 26.405 14.1326 27.0782 12.9065 28.2379C11.0041 30.0371 10.477 31.7124 11.4476 32.874C12.3052 33.9005 13.6139 33.9348 15.449 32.9792C17.7712 31.7699 19.3167 30.0203 19.7192 28.1453C19.8595 27.4918 19.4807 26.5223 18.9564 26.1925C18.4127 25.8505 17.4853 25.7807 16.6406 26.0183ZM32.611 32.1012C31.7088 32.4118 22.0191 33.26 25.5667 36.0698C26.3001 36.6508 26.6174 36.6698 27.5326 36.1878C28.5387 35.658 31.4626 34.9032 33.2765 34.847C36.3098 34.7531 35.666 35.9034 35.666 35.9034C35.666 35.9034 36.3805 33.0887 35.1192 32.5443C34.3953 32.2317 32.9661 31.9793 32.611 32.1012ZM9.67 37.4823C8.81165 37.8934 8.27607 38.457 7.91378 39.3303C7.56119 40.18 7.57601 40.9335 7.96795 42.0756C8.67524 44.1368 9.72665 44.9918 11.6103 45.0377C12.6732 45.0635 12.772 45.0304 13.372 44.4457C14.6539 43.1967 14.909 40.4746 13.898 38.8352C13 37.3787 11.1336 36.7814 9.67 37.4823Z" fill="black"/>
<path fill-rule="evenodd" clip-rule="evenodd" d="M26.194 2.75898C25.7724 3.18014 25.6804 3.53499 25.7578 4.44023C25.7958 4.88667 27.12 8.23892 28.3791 11.0768C28.7673 11.952 29.0286 12.7286 28.9598 12.8026C28.8908 12.8765 27.2941 13.4579 25.4115 14.0944C23.529 14.7307 21.7506 15.3745 21.4597 15.5249C21.1689 15.6752 19.9275 16.1947 18.7013 16.6795C14.4275 18.3685 13.554 18.9815 8.38169 23.9204C5.29555 26.8674 4.04493 28.4024 2.42472 31.2324C0.111532 35.2731 -0.566945 39.2138 0.477042 42.5454C0.885189 43.8475 3.05508 47.8602 4.05147 49.1551C4.98312 50.3659 6.6587 51.7865 8.29164 52.7501C8.99577 53.1654 10.0007 53.8031 10.5247 54.1672C11.905 55.126 13.0919 55.5067 15.6339 55.8057C22.3201 56.5924 26.6406 55.637 31.2652 52.3489C35.004 49.6905 38.1941 46.6764 39.6434 44.4328C40.3584 43.326 41.1299 41.7959 42.0962 39.5683L42.3152 39.0637L42.9624 40.0377C43.9001 41.4492 44.6647 42.2692 45.6197 42.8875L46.4611 43.4324L46.5333 45.4657C46.654 48.8579 47.4763 51.0655 49.2414 52.7354C49.8031 53.2669 51.4967 54.5737 53.0049 55.6393C54.5131 56.7049 56.076 57.9035 56.4781 58.3027C57.2265 59.046 58.6663 61.7193 58.6663 62.3657C58.6663 63.1748 59.681 63.4338 60.1663 62.7485C60.3211 62.5296 60.6176 61.7937 60.8252 61.113C61.0325 60.4323 61.5479 59.1896 61.9702 58.3513C63.843 54.6343 64.1316 50.0053 62.7184 46.3497C61.5035 43.2071 58.665 40.6659 55.4234 39.8188L54.3355 39.5345L54.284 38.743C54.1846 37.2106 53.6001 35.9153 51.855 33.361L50.708 31.682L52.7521 30.7C55.5311 29.365 56.6878 28.2126 58.0485 25.424C59.5802 22.2846 59.7184 20.2943 58.5679 17.9387C57.9098 16.5909 56.573 15.4802 53.9624 14.1124C49.9761 12.0236 48.0875 11.397 43.1724 10.5317C40.2862 10.0236 38.6463 10.0316 36.0465 10.566C35.3309 10.7131 34.7257 10.8088 34.7014 10.7784C34.6772 10.748 33.5602 9.21153 32.2189 7.3639C30.8777 5.51628 29.5325 3.7392 29.2296 3.41493C28.1385 2.24678 26.9612 1.99235 26.194 2.75898ZM31.6622 10.4943C33.5961 13.1469 34.5942 14.186 35.5177 14.5078C36.1415 14.7251 36.2963 14.4862 36.1246 13.5712C35.9857 12.8309 36.0428 12.8053 38.4043 12.5475C40.0557 12.3673 40.3957 12.3884 42.8635 12.8233C47.4506 13.6317 48.5898 13.994 52.1532 15.7779C55.759 17.5831 56.505 18.267 56.9038 20.1332C57.1722 21.3884 56.8967 22.6226 55.9081 24.5963C54.8413 26.7261 53.7105 27.7615 51.1998 28.9074L49.3217 29.7647L48.3769 29.0674C47.4939 28.4157 46.4245 27.785 46.2025 27.785C45.715 27.785 47.4428 31.3786 48.3815 32.3173C48.7573 32.6932 49.4038 33.6771 49.8181 34.5037C50.2323 35.3302 50.6891 36.0748 50.8331 36.1581C51.5462 36.5705 52.2235 39.2693 51.7867 39.9582C51.6717 40.1394 52.3204 40.5448 54.474 41.6378C58.4285 43.6449 59.8709 45.0397 60.7792 47.7344C61.2526 49.1385 61.2381 50.2336 60.7119 52.8714C60.2783 55.0449 59.8088 56.1564 59.0249 56.8653C58.6394 57.2139 58.639 57.2139 58.3029 56.7767C58.1178 56.536 57.9646 56.259 57.9625 56.161C57.9581 55.9572 56.053 54.6575 55.1279 54.2273C54.0445 53.7232 50.7298 51.1546 50.1746 50.3887C49.4685 49.4145 48.9655 47.7336 48.8452 45.9446C48.7915 45.1464 48.6551 43.7971 48.542 42.9462C48.3571 41.5551 48.2987 41.3991 47.9631 41.3991C47.4545 41.3991 46.0032 40.4562 45.7365 39.9523C45.617 39.7271 45.2625 39.2244 44.9483 38.8354C44.6343 38.4465 43.7221 36.9931 42.9214 35.6059C41.1274 32.498 40.5167 31.9412 39.7059 32.6746C39.2135 33.12 39.3149 33.888 40.0415 35.2159L40.7007 36.4206L40.1917 37.8932C38.4303 42.9877 36.3432 45.6695 31.0897 49.5881C28.2969 51.6712 26.8393 52.4538 24.4328 53.1624C22.4128 53.7572 20.4952 53.8765 17.1605 53.6152C13.9588 53.3641 13.0557 53.1237 11.6886 52.1588C11.1082 51.749 9.9168 50.9414 9.04106 50.3639C6.39774 48.6211 5.65841 47.7585 3.75549 44.1967C2.43799 41.7306 2.13458 40.3752 2.4042 38.1586C2.63702 36.2452 3.0825 34.8538 4.02688 33.0892C5.52165 30.2966 6.66241 28.8305 9.48141 26.0794C14.4491 21.2312 15.6873 20.3143 18.9624 19.0581C19.8303 18.7251 21.1776 18.1719 21.956 17.8287C24.0671 16.898 29.8921 14.9798 29.9629 15.192C29.9963 15.2923 30.4264 16.0493 30.9188 16.8747C31.9297 18.5694 32.444 18.9497 33.1235 18.5046C33.7102 18.1206 33.6624 17.5018 32.9273 15.9692C32.5882 15.2618 31.9557 13.7862 31.5219 12.6898C31.0879 11.5935 30.45 10.053 30.1039 9.26669C29.0861 6.95318 29.073 6.94275 31.6622 10.4943ZM32.2971 32.3534C32.0762 32.5321 31.9504 32.7669 32.0173 32.8753C32.0843 32.9835 32.6572 33.327 33.2904 33.6386C33.9237 33.9501 34.4771 34.2622 34.5203 34.332C34.5634 34.4018 33.9007 34.4192 33.0474 34.3705C31.6486 34.2908 29.7212 34.4533 28.0741 34.7897C27.5602 34.8948 27.4861 34.8702 27.5802 34.625C27.7286 34.2386 27.0779 33.7964 26.3612 33.7964C24.7095 33.7964 22.6982 35.6191 22.3132 37.4646C22.0245 38.8496 23.0893 40.1541 24.8203 40.5352C26.3004 40.8611 30.0096 40.8137 31.4011 40.4509C33.9058 39.798 35.7458 38.3188 36.777 36.1289C37.591 34.4002 37.2522 33.2696 35.6695 32.4331C34.6737 31.9067 32.9008 31.8648 32.2971 32.3534ZM33.8331 36.5216C32.7078 37.9961 29.5234 38.7976 26.337 38.4081C24.9358 38.2368 24.5255 38.1291 24.7129 37.9818C24.908 37.8285 28.825 36.5983 29.9173 36.3474C31.037 36.09 34.0628 35.7502 34.2321 35.8628C34.2701 35.8879 34.0905 36.1844 33.8331 36.5216Z" fill="#323239"/>
</svg>
